<?xml version="1.0" encoding="utf-8"?>
<!-- Generator: Adobe Illustrator 18.1.1, SVG Export Plug-In . SVG Version: 6.00 Build 0)  -->
<svg version="1.1" id="Artwork" xmlns="http://www.w3.org/2000/svg" xmlns:xlink="http://www.w3.org/1999/xlink" x="0px" y="0px"
	 viewBox="56 346.1 500 100" enable-background="new 56 346.1 500 100" xml:space="preserve">
<g>
	<polygon fill="#333333" points="130.4,412.6 108,435 108,435 76.7,435 130.4,381.3 	"/>
	<polygon fill="#333333" points="155,368 132.6,390.5 132.6,435 132.6,435 155,435 	"/>
	<polygon fill="#333333" points="155,368 155,357.2 143.9,368 	"/>
</g>
<g enable-background="new    ">
	<path fill="#333333" d="M221.7,385.5h3.3l13.6,32.4h-3.3l-4.2-10h-15.2l-4.2,10h-3.3L221.7,385.5z M220.3,396.6l-3.3,8.3h13
		l-3.3-8.3l-3-8L220.3,396.6z"/>
	<path fill="#333333" d="M275.7,415.1H294v2.8h-21.3v-32.1h3V415.1z"/>
	<path fill="#333333" d="M327.7,417.6v-31.8h11.6c10.2,0,15.8,5,15.8,16.1s-5.5,16.1-15.8,16.1h-11.6V417.6z M339.4,415.1
		c9.1,0,12.5-5.3,12.5-13.3s-3.3-13.3-12.5-13.3h-8.3v26.6L339.4,415.1L339.4,415.1z"/>
	<path fill="#333333" d="M393.6,417.6h-3.3v-31.8h13.3c5.3,0,10.8,1.7,10.8,8.9c0,6.1-3.9,8.3-8,8.9l9.4,14.4h-3.9l-9.1-14.1h-9.7
		v13.8L393.6,417.6L393.6,417.6z M404.1,400.7c3,0,6.9-0.3,6.9-6.1c0-5.8-4.2-6.1-6.9-6.1h-10.8v12.2H404.1z"/>
	<path fill="#333333" d="M450.1,385.8l7.2,10l4.2,5.8l4.2-5.8l7.2-10h3.6L463.1,404v13.6h-3V404l-13.3-18.3L450.1,385.8L450.1,385.8
		z"/>
	<path fill="#333333" d="M517.1,396.6l-4.2-5.8l0.3,10.8v16.1h-3v-31.8h2.8l15.5,21l4.2,5.8l-0.3-10.8v-16.1h3v31.8h-2.8
		L517.1,396.6z"/>
</g>
</svg>
