<?xml version="1.0" encoding="utf-8"?>
<!-- Generator: Adobe Illustrator 18.1.1, SVG Export Plug-In . SVG Version: 6.00 Build 0)  -->
<svg version="1.1" id="Layer_1" xmlns="http://www.w3.org/2000/svg" xmlns:xlink="http://www.w3.org/1999/xlink" x="0px" y="0px"
	 viewBox="0 327 612 103.4" enable-background="new 0 327 612 103.4" xml:space="preserve">
<g id="ald_copy_1_" enable-background="new    ">
	<g id="ald_copy">
		<g>
			<path fill="#FFFFFF" d="M42,430.5L71.8,401v-42L0,430.5H42z M74.8,371.2v59.3h29.7v-88.8L74.8,371.2z M89.9,341.7h14.7V327
				L89.9,341.7z M194.8,364.5l-17.9,42.9h2.6l5.8-14.4h21.1l5.8,14.4h2.6L197,364.5H194.8z M205.8,391h-19.6l4.7-11.4l5-12.5l5,12.5
				L205.8,391z M263.8,365.2h-2.4v42.2h28.7v-1.9h-26.3V365.2L263.8,365.2z M351.3,365.2H336v42.2h15.3c13.6,0,21.1-4.7,21.1-21.1
				C372.4,369.9,364.6,365.2,351.3,365.2z M351.9,405.5h-13.6v-38.4h13.6c12.5,0,17.9,4.5,17.9,19.2S364.4,405.5,351.9,405.5z
				 M451.9,376.8c0-10.1-6.5-11.6-12.5-11.6h-19.2v42.2h2.4v-19h15.7l12.5,19h3l-12.7-19C446.7,388.2,451.9,386.1,451.9,376.8z
				 M422.8,386.5v-19.6h17.5c4.3,0,9.3,1.3,9.3,9.7c0,8.6-5,9.7-9.3,9.7h-17.5V386.5z M520.2,379.4l-6,8.8l-6-8.8l-9.7-14.2h-3
				l17.5,25.2v17.2h2.4v-17.2l17.5-25.2h-3L520.2,379.4z M609.6,365.2v25l0.2,14.9l-7.1-10.1l-21.1-29.5h-3v42.2h2.4v-25.2
				l-0.2-14.9l7.1,10.1l21.1,29.5h3v-42H609.6z"/>
		</g>
	</g>
</g>
</svg>
