<?xml version="1.0" encoding="utf-8"?>
<!-- Generator: Adobe Illustrator 18.0.0, SVG Export Plug-In . SVG Version: 6.00 Build 0)  -->
<!DOCTYPE svg PUBLIC "-//W3C//DTD SVG 1.1//EN" "http://www.w3.org/Graphics/SVG/1.1/DTD/svg11.dtd">
<svg version="1.1" id="Слой_1" xmlns="http://www.w3.org/2000/svg" xmlns:xlink="http://www.w3.org/1999/xlink" x="0px" y="0px"
	 viewBox="0 0 150.1 26.4" enable-background="new 0 0 150.1 26.4" xml:space="preserve">
<rect x="43.2" fill="#FFFFFF" width="6.4" height="26.4"/>
<polygon fill="#FFFFFF" points="73.6,26.4 57.6,0 64.9,0 76.1,19.2 86.6,0 93.2,0 78,26.4 "/>
<rect x="100.6" fill="#FFFFFF" width="6.4" height="26.4"/>
<path fill="#FFFFFF" d="M148.3,1.7c-0.9-0.8-2.3-1.7-5-1.7h-20.4c-2.7,0-4,0.9-5,1.7s-1.9,2-1.9,4.5v13.9c0,2.4,0.9,3.7,1.9,4.5
	c0.9,0.8,2.3,1.7,5,1.7h20.4c2.6,0,4-0.9,4.9-1.7c1-0.8,1.9-2.1,1.9-4.5V6.2C150.1,3.7,149.2,2.5,148.3,1.7z M143.7,19.3
	c0,1.2-1.2,2.1-2.7,2.1h-15.7c-1.5,0-2.7-0.9-2.7-2.1V7c0-1.2,1.2-2.1,2.7-2.1H141c1.5,0,2.7,1,2.7,2.1V19.3z"/>
<path fill="#FFFFFF" d="M0,0v26.4l0,0h27.2c2.6,0,4-0.9,4.9-1.7c1-0.8,1.9-2.1,1.9-4.5V6.2c0-2.5-0.9-3.7-1.9-4.5
	c-0.9-0.8-2.3-1.7-5-1.7L0,0L0,0z M27.6,19.3c0,1.2-1.2,2.1-2.7,2.1H6.4v-2.1V7V4.9h18.4c1.5,0,2.7,1,2.7,2.1v12.2H27.6z"/>
</svg>
